<?xml version="1.0" standalone="no"?>
<!DOCTYPE svg PUBLIC "-//W3C//DTD SVG 20010904//EN"
 "http://www.w3.org/TR/2001/REC-SVG-20010904/DTD/svg10.dtd">
<svg version="1.0" xmlns="http://www.w3.org/2000/svg"
 width="260.000000pt" height="260.000000pt" viewBox="0 0 260.000000 260.000000"
 preserveAspectRatio="xMidYMid meet">
<metadata>
Created by potrace 1.11, written by Peter Selinger 2001-2013
</metadata>
<g transform="translate(0.000000,260.000000) scale(0.100000,-0.100000)"
fill="#000000" stroke="none">
<path d="M1661 2207 c-6 -8 -18 -31 -26 -51 -13 -31 -20 -37 -38 -33 -256 62
-430 63 -616 6 -193 -59 -338 -176 -391 -316 -19 -50 -23 -84 -27 -253 l-5
-195 36 -28 36 -28 0 55 c0 54 0 55 33 60 305 50 462 100 740 240 l167 84 16
-29 c37 -73 173 -192 307 -270 l77 -44 0 -53 0 -53 35 34 c30 29 35 41 35 79
0 102 -59 329 -114 435 -13 26 -47 72 -76 101 -46 48 -50 55 -37 70 25 29 49
83 43 98 -11 28 -67 13 -113 -29 l-23 -20 0 54 c0 33 -6 63 -16 77 -17 25 -27
27 -43 9z"/>
<path d="M993 1358 c-24 -12 -53 -64 -53 -97 0 -34 26 -88 48 -100 74 -40 142
44 113 139 -6 21 -17 42 -24 48 -20 17 -60 22 -84 10z"/>
<path d="M1539 1355 c-48 -26 -63 -107 -30 -162 35 -56 97 -56 131 0 34 56 19
137 -31 162 -34 18 -37 18 -70 0z"/>
</g>
</svg>
