<?xml version="1.0" standalone="no"?>
<!DOCTYPE svg PUBLIC "-//W3C//DTD SVG 20010904//EN"
 "http://www.w3.org/TR/2001/REC-SVG-20010904/DTD/svg10.dtd">
<svg version="1.0" xmlns="http://www.w3.org/2000/svg"
 width="250.000000pt" height="250.000000pt" viewBox="0 0 250.000000 250.000000"
 preserveAspectRatio="xMidYMid meet">
<metadata>
Created by potrace 1.11, written by Peter Selinger 2001-2013
</metadata>
<g transform="translate(0.000000,250.000000) scale(0.100000,-0.100000)"
fill="#000000" stroke="none">
<path d="M942 2492 c-20 -3 -21 -6 -10 -19 10 -13 10 -17 1 -20 -26 -9 -13
-33 16 -33 44 0 45 -13 3 -51 -68 -62 -125 -80 -68 -20 21 22 26 35 23 64 -2
21 -7 40 -10 44 -4 3 -2 12 4 20 10 11 -18 13 -159 13 -171 0 -204 -7 -167
-34 16 -12 15 -15 -8 -40 l-26 -28 -7 26 c-3 15 -4 38 -1 52 l4 25 -76 -3
c-73 -3 -76 -4 -80 -28 -3 -24 -2 -24 16 -7 21 18 43 23 43 8 0 -11 -57 -41
-77 -41 -15 0 -64 -29 -75 -44 -10 -14 1 -27 20 -24 11 2 18 -5 20 -19 3 -18
-2 -23 -17 -23 -12 0 -21 -4 -21 -10 0 -5 -5 -10 -10 -10 -6 0 -8 11 -4 25 5
20 2 25 -20 31 -34 8 -33 25 4 57 17 15 30 32 30 37 0 6 5 10 11 10 6 0 22 9
36 20 l26 20 -119 0 c-106 0 -121 -2 -151 -22 -18 -13 -33 -27 -33 -31 0 -5
-9 -22 -21 -38 -11 -16 -19 -36 -16 -43 3 -8 -1 -22 -8 -33 -21 -27 -19 -53 5
-53 11 0 20 7 20 15 0 40 139 130 162 107 16 -16 2 -41 -29 -55 -35 -15 -82
-67 -83 -89 0 -13 -8 -18 -27 -18 -50 -1 -63 -20 -63 -94 0 -44 4 -66 12 -66
24 0 78 24 78 35 0 7 9 20 20 30 12 10 18 25 16 32 -3 8 2 13 15 13 11 0 22
-7 26 -16 3 -8 15 -14 27 -13 41 3 56 -1 56 -16 0 -8 7 -15 16 -15 9 0 29 -9
45 -21 22 -15 27 -24 20 -33 -6 -7 -7 -16 -3 -20 4 -4 -2 -14 -12 -22 -11 -7
-16 -17 -13 -21 4 -3 0 -15 -10 -25 -20 -22 -73 -25 -73 -3 0 9 -7 27 -16 40
-15 23 -15 25 0 31 9 3 28 2 44 -4 26 -9 27 -8 26 16 0 21 -8 28 -35 35 -19 5
-38 14 -42 20 -5 7 -6 1 -3 -15 5 -22 2 -27 -16 -30 -29 -4 -37 -44 -11 -51
16 -4 16 -5 -2 -6 -11 0 -29 6 -39 14 -29 22 -43 19 -73 -15 -14 -16 -32 -30
-40 -30 -19 0 -17 -87 2 -106 8 -9 27 -16 42 -17 22 -2 29 3 31 21 3 19 6 21
18 11 14 -12 14 -12 29 36 7 22 22 18 28 -7 l6 -22 25 23 c21 20 32 23 66 17
24 -4 40 -2 40 4 0 5 8 10 18 10 9 0 32 9 49 20 37 22 80 17 48 -6 -9 -7 -15
-17 -12 -21 3 -5 -11 -18 -31 -28 -20 -10 -44 -25 -52 -31 -23 -19 -106 -45
-123 -38 -9 3 -26 -1 -39 -10 -14 -9 -51 -16 -91 -18 -62 -2 -67 -4 -67 -25 0
-47 49 -73 72 -39 4 6 8 -4 8 -21 0 -41 16 -42 38 -3 13 23 24 30 48 30 17 0
43 9 56 20 21 16 31 18 62 9 42 -12 47 -26 11 -34 -14 -3 -37 -8 -52 -11 -34
-7 -53 -33 -46 -62 4 -17 2 -21 -10 -16 -17 6 -72 -20 -141 -66 l-46 -31 0
-95 c0 -57 5 -103 12 -115 10 -17 10 -23 1 -26 -9 -3 -13 -31 -13 -93 l0 -88
66 -8 c54 -5 68 -10 72 -26 4 -16 11 -18 42 -13 35 6 40 3 67 -29 15 -20 34
-36 41 -36 17 0 15 -27 -3 -42 -48 -39 -64 -64 -70 -107 -4 -25 -13 -56 -21
-68 -9 -15 -14 -55 -15 -124 -1 -88 2 -105 20 -130 12 -15 21 -33 21 -38 0
-20 53 -72 68 -66 20 7 42 -13 42 -39 0 -25 48 -76 72 -76 9 0 18 -7 22 -15 3
-8 17 -15 31 -15 25 0 65 -31 65 -50 0 -16 50 -12 56 5 9 21 48 19 69 -5 10
-11 28 -20 40 -20 23 0 128 52 157 77 16 14 18 14 24 -3 4 -11 30 -47 58 -81
53 -64 112 -140 124 -159 4 -6 22 -19 40 -28 18 -9 38 -25 45 -36 10 -17 23
-20 89 -20 43 0 78 4 78 8 0 5 -19 19 -42 32 -24 12 -52 31 -63 41 -22 19 -70
55 -127 94 -35 23 -128 149 -128 172 0 6 -7 17 -16 24 -9 7 -34 49 -56 93 -21
45 -45 88 -52 96 -6 8 -32 56 -56 105 -24 50 -47 92 -51 95 -4 3 -21 32 -39
65 -18 33 -36 65 -40 70 -7 10 -19 60 -23 102 -1 12 -12 32 -23 45 -12 13 -25
40 -28 61 -4 23 -12 37 -21 37 -8 0 -15 4 -15 9 0 5 23 11 51 15 61 8 153 54
206 102 l37 34 10 -25 c10 -22 13 -23 32 -12 77 45 118 62 206 89 66 19 109
27 129 23 21 -5 31 -2 35 9 3 9 14 16 24 16 22 0 31 12 22 27 -11 16 -97 51
-147 58 -25 4 -45 10 -45 14 0 9 51 31 71 31 24 0 42 26 36 51 -7 24 28 69 54
69 22 0 36 19 41 55 l4 30 13 -33 c7 -18 17 -32 21 -30 4 2 31 31 59 66 29 34
68 73 87 85 39 25 43 37 12 37 -20 0 -20 1 -5 18 10 10 17 23 17 29 0 6 7 13
15 17 8 3 20 17 25 31 10 27 40 35 40 11 0 -8 -11 -28 -25 -44 -30 -36 -31
-42 -5 -42 25 0 25 -1 1 -54 -38 -82 -54 -131 -52 -161 6 -108 4 -117 -27
-142 -28 -21 -30 -27 -20 -48 8 -18 8 -36 -2 -70 -10 -35 -10 -48 0 -59 6 -9
9 -20 5 -26 -3 -5 -2 -10 4 -10 5 0 12 4 15 9 3 5 18 12 33 16 16 3 37 15 48
25 11 10 31 21 45 25 37 11 51 26 45 46 -7 21 21 33 57 24 18 -5 36 6 88 55
36 33 77 71 93 84 15 14 30 39 33 55 5 23 12 31 33 33 21 2 29 11 41 50 8 27
21 48 28 48 29 0 204 201 189 216 -9 10 -42 -18 -80 -67 -21 -27 -43 -49 -48
-49 -18 0 -9 39 11 45 11 3 20 12 20 19 0 7 13 30 30 51 18 23 30 50 30 69 1
33 20 66 39 66 6 0 11 -11 11 -25 0 -13 5 -35 11 -49 11 -23 14 -24 33 -11 29
21 36 19 36 -12 l0 -26 23 21 c29 27 67 28 89 3 15 -18 14 -19 -30 -24 -31 -3
-51 -12 -62 -27 -12 -16 -19 -19 -24 -11 -10 15 -36 -4 -36 -26 0 -12 27 -70
47 -102 1 -2 9 1 17 8 14 11 21 14 96 27 34 7 35 6 18 -13 -10 -11 -18 -33
-18 -50 0 -26 -3 -30 -20 -26 -11 3 -20 9 -20 14 0 5 -8 9 -19 9 -14 0 -17 -6
-14 -23 4 -21 -1 -25 -69 -41 -40 -9 -101 -23 -135 -29 -74 -15 -129 -57 -112
-88 12 -23 26 -24 68 -3 35 17 75 23 211 29 47 2 99 7 115 10 23 5 37 1 55
-14 25 -20 25 -20 5 -35 l-20 -16 20 -15 c20 -16 20 -14 23 231 2 175 -1 250
-9 255 -7 4 -8 9 -1 13 15 9 14 126 0 126 -9 0 -9 3 0 12 15 15 17 122 2 113
-6 -3 -12 0 -15 7 -6 14 -85 23 -85 10 0 -5 5 -13 11 -19 14 -14 5 -29 -21
-36 -15 -4 -20 0 -20 13 0 11 -5 31 -12 45 -16 36 2 53 33 31 35 -24 48 -20
65 19 8 19 21 35 29 35 22 0 18 -17 -7 -35 -23 -16 -23 -16 -4 -30 32 -24 36
-18 36 50 l0 65 -47 -1 c-39 0 -44 -2 -25 -9 27 -11 28 -16 5 -28 -11 -6 -28
-6 -42 -1 -19 8 -21 12 -11 24 11 13 -2 15 -101 15 -82 0 -122 -4 -143 -15
-35 -19 -40 -19 -32 0 4 11 -2 15 -24 15 -24 0 -28 -3 -23 -17 3 -10 15 -25
26 -34 20 -16 20 -17 1 -43 -20 -28 -42 -30 -55 -6 -16 27 -32 75 -30 88 1 9
-61 12 -284 12 -237 0 -285 -2 -285 -14 0 -8 -7 -16 -15 -20 -28 -10 -17 -36
15 -36 20 0 30 -5 30 -15 0 -9 -9 -15 -25 -15 l-25 0 21 -21 c14 -14 28 -19
44 -15 23 6 24 4 22 -38 -2 -24 -8 -50 -14 -58 -6 -7 -13 -22 -15 -33 -2 -14
-10 -19 -26 -17 -13 2 -37 -7 -55 -20 -23 -17 -39 -23 -57 -18 -43 11 -70 0
-70 -27 0 -16 -7 -27 -20 -30 -22 -6 -28 -33 -6 -33 7 0 16 -9 19 -20 5 -20 7
-20 40 -4 27 13 33 21 29 40 -5 27 25 46 38 24 6 -10 14 -7 32 13 17 21 27 25
38 17 13 -9 9 -16 -23 -44 -21 -19 -34 -37 -29 -40 17 -10 24 -58 11 -67 -19
-11 -31 0 -24 21 9 28 -8 31 -48 11 -27 -14 -33 -21 -24 -30 8 -8 7 -15 -6
-28 -16 -16 -18 -16 -37 5 -24 26 -36 28 -44 7 -7 -18 -50 -21 -44 -2 3 6 13
14 22 15 10 2 27 13 38 24 28 28 10 46 -28 29 -33 -15 -40 -8 -21 19 8 12 13
29 10 39 -2 9 3 23 11 30 21 17 20 38 -1 50 -16 8 -15 11 7 30 14 11 40 25 59
30 75 22 131 85 101 115 -8 8 -15 6 -25 -8 -16 -22 -61 -46 -84 -46 -14 1 -14
2 0 13 27 21 50 77 39 97 -18 34 -12 50 19 50 17 0 33 5 36 10 4 6 -25 10 -79
10 -79 0 -86 -2 -86 -20 0 -11 0 -23 -1 -27 0 -5 10 -10 22 -13 12 -3 27 -13
32 -21 14 -23 1 -67 -23 -74 -30 -9 -42 2 -29 27 9 17 8 24 -4 32 -8 7 -16 20
-19 31 -3 16 -11 19 -36 18 -38 -4 -35 18 6 34 24 10 21 11 -31 12 -53 1 -58
-1 -67 -24 -5 -14 -14 -25 -20 -25 -13 0 -13 23 1 37 12 12 -29 21 -69 15z
m731 -38 c-6 -17 -13 -17 -36 0 -18 14 -18 14 0 18 27 6 42 -2 36 -18z m234 7
c-4 -15 -1 -18 12 -14 9 3 21 10 28 15 7 6 18 8 25 5 8 -3 6 -6 -5 -6 -15 -1
-17 -6 -12 -31 6 -26 4 -30 -14 -30 -12 0 -21 -6 -21 -14 0 -11 15 -16 53 -19
40 -3 47 -5 30 -11 -13 -5 -23 -12 -23 -17 0 -5 -7 -9 -15 -9 -8 0 -15 -6 -15
-12 0 -8 -14 -13 -34 -14 -27 0 -32 3 -28 18 2 10 -2 20 -12 24 -19 7 -21 35
-4 52 17 17 0 28 -22 14 -15 -9 -21 -9 -26 0 -4 7 -2 14 4 16 6 2 26 14 44 27
41 29 41 29 35 6z m-1764 2 c-7 -2 -13 -13 -13 -24 0 -10 -7 -19 -15 -19 -18
0 -19 4 -3 30 7 11 20 20 28 19 10 0 11 -2 3 -6z m693 -20 c-10 -10 -19 5 -10
18 6 11 8 11 12 0 2 -7 1 -15 -2 -18z m689 -12 c3 -5 1 -12 -5 -16 -5 -3 -10
1 -10 9 0 18 6 21 15 7z m655 -6 c0 -17 -2 -18 -25 -9 -13 5 -14 8 -3 15 19
13 28 11 28 -6z m-1480 -9 c0 -22 -80 -106 -101 -106 -11 0 -23 8 -26 18 -4 9
-14 23 -22 29 -14 11 -14 14 -1 23 22 14 40 12 34 -5 -5 -12 -2 -12 25 1 17 8
33 20 37 25 5 8 33 24 52 28 1 1 2 -5 2 -13z m110 4 c0 -21 -33 -60 -51 -60
-31 0 -33 21 -3 46 31 25 54 31 54 14z m-336 -37 c-28 -10 -45 -31 -48 -58 -2
-22 -9 -31 -25 -33 -25 -4 -41 -50 -21 -62 10 -6 9 -12 -5 -27 -18 -17 -19
-17 -11 2 5 14 1 24 -14 35 -21 16 -21 16 19 62 23 25 41 51 41 56 0 6 12 20
27 32 20 15 29 18 37 9 8 -8 8 -13 0 -16z m382 -8 c-7 -18 -26 -20 -26 -2 0
18 24 41 28 27 2 -6 1 -17 -2 -25z m252 0 c-1 -40 -8 -44 -26 -14 -10 16 -10
24 -1 35 19 23 28 16 27 -21z m592 15 c0 -38 -81 -55 -88 -17 -3 12 3 17 22
17 14 0 28 5 31 10 11 17 35 11 35 -10z m500 -9 c0 -11 -5 -23 -11 -26 -7 -5
-3 -15 10 -29 14 -14 18 -29 14 -44 -4 -18 -1 -24 16 -29 23 -6 26 -19 11 -57
-6 -16 -17 -26 -29 -26 -14 0 -19 5 -15 15 4 8 1 22 -6 30 -7 9 -14 25 -16 38
-9 53 -18 82 -28 89 -8 6 -8 8 0 8 7 0 15 11 18 25 7 29 36 34 36 6z m-442
-23 c-5 -32 -28 -35 -28 -4 0 17 5 26 16 26 10 0 14 -7 12 -22z m-940 -35 c-1
-10 1 -24 5 -30 5 -7 4 -13 -2 -13 -5 0 -13 5 -17 12 -5 7 -15 2 -30 -17 -13
-17 -28 -26 -37 -22 -13 5 -13 10 1 41 15 31 30 40 70 45 7 0 12 -7 10 -16z
m1273 -3 c-2 -8 -6 -27 -9 -42 -7 -43 -38 -37 -45 9 -8 45 -2 55 31 51 18 -2
26 -8 23 -18z m-1557 -20 c5 -5 6 -16 2 -25 -5 -13 -9 -15 -20 -6 -15 12 -46
5 -46 -11 0 -6 -6 -5 -15 2 -33 28 -6 64 40 54 16 -3 34 -10 39 -14z m652 -27
c8 -3 11 -9 8 -14 -5 -8 -64 16 -64 26 0 2 8 11 18 21 16 17 17 17 20 -5 2
-12 10 -25 18 -28z m1112 23 c3 -12 -1 -17 -10 -14 -7 3 -15 13 -16 22 -3 12
1 17 10 14 7 -3 15 -13 16 -22z m-598 -11 c19 -23 6 -40 -31 -40 -28 0 -35 -4
-37 -23 -5 -33 -36 -24 -40 11 -5 44 9 56 84 66 6 0 17 -6 24 -14z m-732 -34
c-2 -19 -10 -27 -28 -29 -14 -2 -29 -10 -33 -18 -4 -8 -22 -14 -40 -14 -18 0
-41 -7 -52 -16 -17 -13 -18 -16 -5 -24 8 -5 20 -10 26 -10 6 0 11 -17 11 -40
0 -30 -5 -44 -19 -51 -24 -13 -34 -6 -42 32 -4 23 -9 29 -18 22 -7 -5 -39 -26
-70 -48 -32 -21 -58 -44 -58 -52 0 -7 -4 -13 -10 -13 -14 0 -12 -27 3 -33 9
-4 9 -7 0 -18 -10 -10 -16 -10 -30 3 -23 20 -63 32 -63 20 0 -5 7 -15 15 -22
26 -21 16 -28 -26 -19 -23 5 -50 7 -60 4 -33 -11 -21 11 37 69 33 32 65 56 78
56 28 1 56 23 56 44 0 19 37 55 58 56 7 0 12 13 12 30 0 20 5 30 15 30 8 0 15
-4 15 -9 0 -14 -42 -84 -57 -96 -7 -6 -9 -15 -5 -23 7 -9 15 -7 35 11 15 12
27 28 27 34 0 6 9 15 20 18 11 4 27 22 35 41 12 29 18 34 36 29 22 -7 59 18
59 42 0 17 37 32 63 25 13 -3 17 -12 15 -31z m1487 8 c8 -34 -3 -149 -14 -149
-4 0 -12 5 -18 11 -13 13 -33 4 -33 -17 0 -23 -18 -16 -22 9 -3 22 -9 24 -40
12 -14 -5 -16 0 -15 36 2 54 22 61 41 15 10 -23 22 -36 34 -36 23 0 44 41 31
61 -13 20 -11 63 3 77 19 19 26 15 33 -19z m-500 10 c4 -6 13 -8 21 -5 8 3 14
1 14 -4 0 -6 7 -10 16 -10 9 0 29 -14 46 -32 26 -28 28 -34 17 -55 -14 -26
-35 -25 -33 1 2 20 -5 20 -31 2 -17 -12 -22 -12 -33 0 -11 12 -10 15 2 20 17
6 22 44 7 44 -5 0 -14 -7 -21 -15 -19 -23 -37 -18 -44 11 -10 37 22 71 39 43z
m-1665 -39 c0 -13 -7 -20 -20 -20 -19 0 -27 20 -13 33 13 14 33 6 33 -13z
m777 -17 c-3 -10 -5 -4 -5 12 0 17 2 24 5 18 2 -7 2 -21 0 -30z m-842 -3 c-5
-8 -11 -8 -17 -2 -6 6 -7 16 -3 22 5 8 11 8 17 2 6 -6 7 -16 3 -22z m264 21
c13 -8 13 -12 1 -26 -8 -10 -24 -21 -37 -26 -23 -8 -33 -39 -13 -39 6 0 10 -7
10 -15 0 -18 12 -19 27 -4 13 13 43 5 43 -11 0 -5 -15 -16 -33 -23 -18 -8 -40
-22 -50 -31 -16 -16 -17 -16 -17 14 0 48 -40 80 -54 43 -5 -12 -10 -13 -17 -6
-16 16 -4 30 32 38 17 4 28 12 26 18 -4 11 50 77 62 77 4 0 12 -4 20 -9z
m1091 -68 c0 -7 -6 -13 -14 -13 -7 0 -16 -10 -20 -22 -9 -33 -8 -38 8 -38 21
0 30 -20 17 -33 -8 -8 -14 -8 -23 1 -7 7 -31 12 -54 12 -53 0 -61 12 -36 48
11 15 22 41 24 56 2 23 10 32 38 41 33 12 36 11 47 -14 7 -14 12 -32 13 -38z
m275 17 c-14 -16 -15 -22 -5 -35 11 -13 8 -15 -20 -15 -25 0 -31 3 -26 16 3 9
9 28 13 42 8 35 24 45 42 27 13 -12 12 -17 -4 -35z m-128 24 c8 -21 -13 -42
-28 -27 -13 13 -5 43 11 43 6 0 13 -7 17 -16z m-572 -44 c0 -22 -39 -19 -43 3
-3 15 1 18 20 15 12 -2 23 -10 23 -18z m-252 -35 c-38 -29 -48 -5 -10 25 19
16 23 16 25 4 2 -9 -5 -22 -15 -29z m91 12 c-7 -20 -34 -23 -34 -4 0 19 22 39
32 29 5 -5 6 -16 2 -25z m-679 -10 c-20 -11 -29 -3 -21 19 5 13 9 14 22 3 14
-11 14 -13 -1 -22z m825 -19 c0 -5 -9 -12 -20 -15 -11 -3 -20 -11 -20 -19 0
-25 -23 -27 -41 -3 -17 22 -18 23 -37 6 -10 -9 -24 -17 -31 -17 -7 0 -24 -9
-38 -20 -27 -21 -53 -26 -53 -11 0 23 14 41 31 41 11 0 38 9 60 20 30 16 44
18 58 10 28 -14 31 -13 31 14 0 23 2 24 30 15 17 -6 30 -15 30 -21z m517 26
c-3 -3 -12 -4 -19 -1 -8 3 -5 6 6 6 11 1 17 -2 13 -5z m443 -32 c0 -5 -9 -17
-20 -27 -11 -10 -20 -29 -20 -41 0 -14 -10 -30 -26 -40 -18 -12 -24 -24 -22
-43 2 -21 -2 -27 -20 -29 -21 -3 -23 -1 -17 19 4 13 10 46 14 74 5 41 10 51
27 53 12 2 30 12 40 23 17 19 44 26 44 11z m-1712 -50 c2 -23 -1 -32 -12 -32
-20 0 -38 34 -30 55 11 28 39 13 42 -23z m1382 3 c0 -9 -8 -19 -17 -22 -10 -4
-21 -11 -25 -17 -5 -7 -8 -6 -8 3 0 16 28 51 42 51 4 0 8 -7 8 -15z m-140 -15
c0 -5 -4 -10 -10 -10 -5 0 -10 5 -10 10 0 6 5 10 10 10 6 0 10 -4 10 -10z
m241 -9 c22 -18 23 -20 6 -27 -12 -4 -23 0 -32 12 -28 37 -12 46 26 15z
m-1100 -23 c10 -18 9 -20 -5 -15 -8 3 -18 2 -21 -3 -4 -6 -17 -10 -30 -10 -13
0 -27 -4 -30 -10 -8 -13 -25 -13 -25 0 0 8 25 24 97 59 1 1 7 -9 14 -21z m699
-18 c-19 -12 -35 3 -26 26 6 17 8 17 24 0 15 -15 15 -18 2 -26z m-453 24 c-3
-3 -12 -4 -19 -1 -8 3 -5 6 6 6 11 1 17 -2 13 -5z m50 -58 c-4 -9 -17 -16 -30
-16 -27 0 -52 -24 -42 -40 3 -5 17 -10 31 -10 31 0 31 -24 -1 -38 -22 -10 -25
-9 -25 9 0 11 -10 33 -22 49 -21 29 -21 30 -3 50 11 12 25 18 35 15 11 -4 20
1 24 11 6 16 8 16 23 2 9 -9 13 -24 10 -32z m-1002 16 c0 -18 -20 -15 -23 4
-3 10 1 15 10 12 7 -3 13 -10 13 -16z m1085 -28 c0 -9 -7 -14 -17 -12 -25 5
-28 28 -4 28 12 0 21 -6 21 -16z m1204 9 c4 -5 12 -9 17 -9 23 -3 21 -6 -16
-19 -22 -8 -41 -15 -42 -15 -6 0 -3 37 4 43 9 9 28 9 37 0z m71 -3 c-3 -5 -11
-10 -16 -10 -6 0 -7 5 -4 10 3 6 11 10 16 10 6 0 7 -4 4 -10z m-1595 -20 c-6
-11 -13 -20 -15 -20 -3 0 -5 9 -5 20 0 11 7 20 15 20 13 0 14 -4 5 -20z m120
-50 c0 -30 4 -39 21 -43 35 -9 19 -41 -24 -48 -36 -6 -87 -42 -76 -54 3 -3 20
0 37 6 17 6 36 9 42 7 16 -5 -18 -48 -39 -48 -9 0 -28 -10 -40 -21 -19 -18
-25 -19 -32 -8 -5 8 -9 17 -9 22 0 17 -46 4 -63 -18 -20 -27 -8 -41 22 -25 30
16 43 12 39 -12 -2 -17 -12 -24 -41 -30 -25 -5 -54 -23 -85 -53 -30 -30 -55
-45 -72 -45 -14 0 -31 -5 -37 -11 -6 -6 -16 -8 -22 -5 -16 10 -14 39 2 33 7
-3 42 15 78 39 35 24 70 44 77 44 6 0 12 9 12 20 0 16 -5 19 -30 14 -25 -5
-30 -3 -30 12 0 28 12 40 45 48 17 4 38 15 48 23 21 20 22 53 1 53 -8 0 -13 4
-9 10 4 6 15 5 30 -2 32 -14 64 -5 105 32 l34 30 -22 23 c-12 13 -22 33 -22
45 0 19 3 20 30 11 26 -10 30 -16 30 -49z m328 43 c7 -23 -26 -25 -48 -3 l-21
21 32 -3 c18 -2 34 -9 37 -15z m552 -3 c0 -26 -46 -38 -67 -17 -22 21 -8 37
33 37 27 0 34 -4 34 -20z m-739 -13 c-1 -12 -15 -9 -19 4 -3 6 1 10 8 8 6 -3
11 -8 11 -12z m816 -19 c-3 -7 -5 -2 -5 12 0 14 2 19 5 13 2 -7 2 -19 0 -25z
m-1220 -20 c-4 -13 -13 -32 -20 -42 -14 -19 -15 -19 -43 -1 l-28 18 40 33 c41
35 61 32 51 -8z m658 31 c10 -15 -1 -23 -20 -15 -9 3 -13 10 -10 16 8 13 22
13 30 -1z m-521 -49 c13 -28 13 -30 -3 -30 -9 0 -26 6 -36 14 -16 12 -17 16
-6 30 19 23 27 20 45 -14z m356 26 c0 -11 -19 -15 -25 -6 -3 5 1 10 9 10 9 0
16 -2 16 -4z m45 -15 c-6 -19 17 -51 36 -51 5 0 9 -7 9 -16 0 -12 -7 -14 -32
-9 -53 12 -57 19 -38 69 11 30 35 36 25 7z m-693 -26 c3 -4 1 -17 -6 -30 -12
-25 -44 -39 -69 -29 -10 3 -20 -3 -27 -15 -6 -12 -15 -21 -20 -21 -20 0 -81
-68 -78 -86 2 -12 -3 -19 -12 -19 -8 0 -14 7 -12 16 1 8 -7 25 -18 37 -11 12
-20 23 -20 24 0 2 17 2 38 0 30 -3 45 2 67 20 28 25 28 55 -1 44 -7 -3 -16 -1
-19 4 -3 5 11 17 32 26 27 13 38 15 41 6 6 -19 37 -14 57 8 18 20 36 25 47 15z
m48 -4 c0 -5 3 -17 7 -26 5 -16 4 -16 -15 1 -12 9 -19 21 -16 26 7 11 24 10
24 -1z m520 -1 c0 -5 -9 -10 -21 -10 -11 0 -17 5 -14 10 3 6 13 10 21 10 8 0
14 -4 14 -10z m500 -9 c0 -11 -5 -23 -11 -26 -13 -8 -15 -6 -23 23 -6 18 -3
22 13 22 14 0 21 -6 21 -19z m98 7 c21 -21 14 -48 -11 -48 -20 0 -24 5 -25 30
-1 31 15 39 36 18z m336 -3 c-6 -16 -24 -21 -24 -7 0 11 11 22 21 22 5 0 6 -7
3 -15z m-1281 -55 c4 -4 -6 -13 -22 -20 -17 -7 -31 -19 -31 -26 0 -8 -9 -14
-20 -14 -26 0 -25 15 3 50 21 28 47 31 70 10z m451 1 c3 -5 -1 -11 -9 -15 -9
-3 -15 0 -15 9 0 16 16 20 24 6z m664 -14 c3 -16 1 -17 -17 -7 -25 13 -28 33
-4 28 10 -2 19 -11 21 -21z m602 8 c0 -15 -43 -12 -48 3 -3 10 4 13 22 10 15
-2 26 -7 26 -13z m-2353 -1 c-3 -3 -12 -4 -19 -1 -8 3 -5 6 6 6 11 1 17 -2 13
-5z m1468 -14 c3 -5 -1 -10 -9 -10 -9 0 -16 5 -16 10 0 6 4 10 9 10 6 0 13 -4
16 -10z m-446 -14 c9 -11 9 -15 -1 -19 -19 -6 -38 3 -38 19 0 18 24 18 39 0z
m579 -8 c-6 -18 -28 -21 -28 -4 0 9 7 16 16 16 9 0 14 -5 12 -12z m-1220 -31
c4 -21 -43 -46 -59 -30 -8 8 -5 17 8 32 21 25 46 24 51 -2z m69 -13 c-3 -3
-12 -4 -19 -1 -8 3 -5 6 6 6 11 1 17 -2 13 -5z m-177 -29 c0 -8 -7 -15 -15
-15 -9 0 -12 6 -9 15 4 8 10 15 15 15 5 0 9 -7 9 -15z m1280 -6 c0 -24 -23
-21 -28 4 -2 10 3 17 12 17 10 0 16 -9 16 -21z m80 -5 c-6 -14 -7 -30 -4 -36
3 -5 -3 -12 -15 -15 -12 -3 -21 -12 -21 -19 0 -8 -7 -14 -16 -14 -9 0 -12 5
-8 12 5 7 8 23 8 35 1 18 37 54 63 62 1 1 -2 -11 -7 -25z m-1100 -23 c0 -22
-19 -41 -42 -41 -23 0 -23 5 4 40 22 31 38 31 38 1z m-480 0 c0 -12 -50 -44
-58 -37 -3 3 0 6 6 6 6 0 14 9 17 20 6 20 35 29 35 11z m104 -8 c4 -9 1 -23
-7 -30 -12 -12 -16 -12 -27 1 -10 13 -10 19 0 31 16 19 26 19 34 -2z m776 2
c0 -8 -7 -15 -15 -15 -8 0 -15 7 -15 15 0 8 7 15 15 15 8 0 15 -7 15 -15z
m-120 -5 c0 -5 -9 -14 -20 -20 -16 -8 -20 -8 -20 4 0 13 13 23 33 25 4 1 7 -3
7 -9z m-580 -26 c0 -3 -7 -12 -15 -20 -12 -13 -15 -13 -15 -1 0 7 3 17 7 20 8
8 23 9 23 1z m640 -19 c0 -8 -3 -15 -7 -15 -5 0 -34 -25 -67 -55 -32 -30 -67
-55 -77 -55 -28 0 -24 38 4 49 13 5 29 16 36 25 7 9 21 16 30 16 10 0 28 11
41 25 27 28 40 32 40 10z m-690 -42 c0 -20 35 -50 74 -64 43 -15 46 -23 36
-78 -8 -42 -22 -61 -47 -61 -21 0 -15 21 12 46 24 22 24 24 9 43 -13 15 -22
17 -41 10 -16 -6 -30 -5 -43 4 -26 16 -25 27 3 28 l22 0 -22 9 c-13 5 -23 14
-23 20 0 5 -7 10 -16 10 -11 0 -14 -8 -12 -27 2 -14 -2 -28 -8 -30 -24 -8 -25
103 -2 118 14 9 58 -13 58 -28z m220 3 c0 -19 -6 -25 -30 -28 -32 -5 -36 2
-20 33 16 28 50 25 50 -5z m-415 -26 c3 -5 1 -10 -4 -10 -6 0 -11 5 -11 10 0
6 2 10 4 10 3 0 8 -4 11 -10z m301 -37 c-11 -11 -19 6 -11 24 8 17 8 17 12 0
3 -10 2 -21 -1 -24z m139 10 c0 -15 -63 -65 -77 -61 -7 3 1 18 22 40 33 35 55
43 55 21z m-445 -13 c0 -5 -5 -10 -11 -10 -5 0 -7 5 -4 10 3 6 8 10 11 10 2 0
4 -4 4 -10z m40 -41 c0 -5 -9 -9 -20 -9 -13 0 -18 5 -14 14 6 15 34 11 34 -5z
m460 6 c0 -8 -4 -15 -10 -15 -5 0 -10 7 -10 15 0 8 5 15 10 15 6 0 10 -7 10
-15z m-538 -37 c-13 -13 -26 8 -17 30 6 16 7 16 17 -1 7 -13 7 -22 0 -29z
m128 -3 c0 -8 -9 -15 -19 -15 -11 0 -23 -9 -26 -20 -8 -24 -30 -26 -39 -5 -4
10 3 19 18 25 13 5 27 14 31 19 9 16 35 13 35 -4z m90 -20 c0 -9 -6 -12 -15
-9 -8 4 -15 10 -15 15 0 5 7 9 15 9 8 0 15 -7 15 -15z m490 -10 c11 -13 10
-14 -4 -9 -9 3 -16 10 -16 15 0 13 6 11 20 -6z m-140 -25 c0 -5 -7 -10 -15
-10 -8 0 -15 5 -15 10 0 6 7 10 15 10 8 0 15 -4 15 -10z m-160 -50 c-22 -41
-46 -31 -34 14 5 22 9 24 25 15 15 -8 17 -14 9 -29z m-409 -30 c10 -6 19 -19
19 -29 0 -13 -8 -18 -35 -19 -27 -1 -35 2 -35 16 0 16 17 42 28 42 2 0 12 -5
23 -10z m267 -2 c-3 -7 -11 -13 -18 -13 -7 0 -15 6 -17 13 -3 7 4 12 17 12 13
0 20 -5 18 -12z m170 -20 c-6 -18 -28 -21 -28 -4 0 9 7 16 16 16 9 0 14 -5 12
-12z m-300 -47 c29 -25 28 -28 -10 -23 -33 5 -51 19 -42 34 8 13 27 9 52 -11z
m182 -26 c0 -16 -52 -55 -73 -55 -8 0 -21 7 -28 17 -11 13 -12 17 -1 21 7 2
18 10 25 17 6 6 19 10 28 8 9 -3 20 0 24 6 8 14 25 5 25 -14z m102 -169 c28
-6 54 -38 108 -131 14 -23 38 -59 53 -78 17 -21 27 -45 25 -58 -3 -20 -8 -18
-64 29 -92 77 -190 112 -222 80 -18 -18 5 -38 47 -38 58 -1 88 -33 56 -60 -9
-7 -29 -33 -45 -57 -30 -45 -40 -105 -20 -118 19 -12 40 16 40 51 0 37 41 111
66 121 11 4 27 -8 49 -33 88 -104 99 -114 131 -114 25 0 33 -5 38 -24 3 -14
21 -44 39 -68 26 -34 57 -95 57 -114 0 -4 -83 -41 -119 -53 -39 -13 -166 4
-191 25 -9 7 -30 19 -47 26 -68 29 -202 176 -227 251 -28 82 -17 206 25 307
15 35 29 50 62 66 37 18 46 19 77 8 19 -7 47 -15 62 -18z"/>
<path d="M1500 2100 c-12 -8 -10 -10 8 -10 13 0 20 4 17 10 -7 12 -6 12 -25 0z"/>
<path d="M851 1714 c0 -11 3 -14 6 -6 3 7 2 16 -1 19 -3 4 -6 -2 -5 -13z"/>
<path d="M1407 2274 c-11 -11 3 -24 18 -18 8 4 12 10 9 15 -6 11 -18 12 -27 3z"/>
<path d="M122 2107 c-9 -11 -10 -17 -2 -22 15 -9 23 -1 18 21 -3 15 -4 16 -16
1z"/>
<path d="M24 1686 c-8 -20 -1 -29 20 -24 13 3 13 6 1 22 -13 17 -15 18 -21 2z"/>
<path d="M2221 1464 c-105 -19 -131 -29 -192 -73 -117 -85 -130 -105 -84 -135
33 -22 48 -20 83 9 49 41 58 33 61 -55 2 -50 21 -85 67 -123 43 -36 75 -47
160 -53 76 -5 114 5 114 31 0 8 8 22 19 32 26 26 41 102 44 223 l2 104 -41 23
c-53 29 -137 36 -233 17z m79 -174 c33 -18 44 -48 26 -75 -34 -52 -96 -39 -96
20 0 32 21 65 41 65 6 0 19 -5 29 -10z"/>
<path d="M1080 1209 c-25 -5 -70 -14 -100 -20 -59 -12 -163 -74 -215 -129
l-29 -31 29 -24 c33 -27 57 -25 92 7 35 32 53 17 53 -43 0 -37 6 -60 22 -82
50 -71 91 -92 200 -102 82 -7 77 -9 131 55 19 23 37 92 37 143 0 44 1 46 32
49 45 4 47 29 6 90 -51 76 -150 109 -258 87z m52 -186 c47 -42 -5 -111 -66
-87 -19 7 -22 74 -4 92 17 17 48 15 70 -5z"/>
<path d="M2395 889 c-8 -11 12 -76 26 -84 5 -4 9 14 9 38 0 30 -5 47 -15 50
-8 4 -17 2 -20 -4z"/>
<path d="M1776 841 c-3 -5 3 -19 13 -32 16 -20 21 -22 35 -10 15 13 15 15 0
32 -18 20 -39 25 -48 10z"/>
<path d="M1113 574 c-7 -18 23 -48 38 -38 16 9 9 33 -11 44 -16 9 -22 8 -27
-6z"/>
<path d="M1225 570 c-8 -14 3 -30 21 -30 8 0 14 9 14 20 0 21 -24 28 -35 10z"/>
<path d="M966 563 c-22 -22 19 -91 47 -80 14 5 14 11 6 37 -11 30 -41 55 -53
43z"/>
<path d="M2075 370 c-32 -33 -182 -100 -225 -100 -16 0 -51 -5 -78 -11 -36 -9
-65 -9 -112 0 -50 8 -66 8 -72 -2 -15 -25 15 -32 134 -29 159 3 288 40 373
106 46 35 56 47 49 58 -11 17 -41 7 -69 -22z"/>
</g>
</svg>
