<?xml version="1.0" standalone="no"?>
<!DOCTYPE svg PUBLIC "-//W3C//DTD SVG 20010904//EN"
 "http://www.w3.org/TR/2001/REC-SVG-20010904/DTD/svg10.dtd">
<svg version="1.0" xmlns="http://www.w3.org/2000/svg"
 width="260.000000pt" height="260.000000pt" viewBox="0 0 260.000000 260.000000"
 preserveAspectRatio="xMidYMid meet">
<metadata>
Created by potrace 1.11, written by Peter Selinger 2001-2013
</metadata>
<g transform="translate(0.000000,260.000000) scale(0.100000,-0.100000)"
fill="#000000" stroke="none">
<path d="M224 2590 c-78 -4 -116 -9 -129 -20 -29 -24 -75 -102 -75 -126 0 -13
-5 -26 -10 -29 -6 -3 -10 -20 -10 -37 0 -23 4 -29 16 -24 9 3 18 6 20 6 2 0 4
6 4 13 0 39 129 127 165 113 20 -7 5 -40 -28 -57 -38 -21 -87 -72 -87 -92 0
-15 -5 -18 -23 -14 -13 4 -31 -1 -44 -13 -20 -16 -23 -28 -23 -89 0 -79 3 -81
64 -56 20 8 36 22 36 30 0 9 7 18 15 21 8 4 15 14 15 24 0 26 14 32 36 15 10
-8 29 -15 41 -15 34 0 53 -11 53 -30 0 -12 6 -17 18 -13 25 6 76 -35 62 -51
-5 -7 -7 -16 -3 -20 4 -3 -2 -13 -13 -20 -10 -8 -16 -18 -11 -22 13 -13 -25
-44 -55 -44 -21 0 -28 5 -28 19 0 11 -4 23 -10 26 -5 3 -10 15 -10 27 0 17 5
20 28 15 15 -3 34 -8 43 -12 12 -5 15 0 12 22 -4 23 -13 32 -49 45 -44 15 -44
15 -44 -8 0 -16 -7 -24 -22 -26 -29 -4 -37 -44 -11 -51 15 -4 15 -5 2 -6 -9 0
-22 6 -29 14 -21 26 -64 18 -88 -15 -13 -16 -29 -30 -37 -30 -12 0 -15 -15
-14 -77 1 -43 3 -70 6 -61 4 14 9 15 35 6 28 -10 33 -9 46 10 8 12 21 22 29
22 7 0 16 7 20 16 4 11 13 13 34 9 22 -5 31 -2 41 14 14 23 39 27 68 11 13 -7
21 -6 30 5 7 8 20 15 29 15 9 0 29 7 45 15 15 8 36 15 45 15 14 -1 14 -2 -2
-14 -10 -8 -16 -19 -15 -26 2 -6 -10 -19 -27 -28 -16 -10 -46 -27 -66 -40 -20
-12 -59 -24 -85 -26 -27 -3 -67 -12 -89 -21 -26 -12 -57 -16 -92 -13 -53 5
-53 4 -53 -24 0 -37 32 -72 58 -64 14 5 21 1 25 -14 7 -28 19 -25 42 10 16 24
27 30 56 30 24 0 42 7 55 21 19 21 54 20 82 -4 12 -9 11 -12 -5 -18 -10 -4
-30 -8 -45 -8 -29 -1 -68 -35 -68 -60 0 -10 -22 -26 -54 -39 -30 -13 -62 -32
-72 -43 -9 -10 -22 -19 -29 -19 -7 0 -19 -8 -28 -18 -21 -23 -25 -210 -5 -231
10 -11 10 -14 1 -18 -9 -3 -13 -32 -13 -98 l0 -93 44 -11 c25 -6 56 -11 69
-11 17 0 26 -7 30 -21 5 -19 11 -21 41 -15 32 6 39 3 82 -39 l47 -46 -41 -40
c-31 -31 -41 -50 -47 -87 -3 -26 -13 -57 -20 -69 -10 -14 -15 -59 -17 -135 -3
-101 -1 -116 18 -143 12 -16 33 -49 48 -72 27 -44 40 -52 51 -33 11 18 35 -9
35 -39 0 -29 48 -81 74 -81 9 0 19 -7 22 -15 4 -8 18 -15 34 -15 19 0 36 -10
53 -30 28 -33 73 -41 83 -15 9 22 32 18 66 -10 31 -26 53 -32 62 -16 3 5 17
12 31 15 14 4 46 20 72 36 55 35 61 36 70 13 3 -10 12 -25 19 -33 7 -8 26 -31
43 -50 17 -19 51 -63 77 -98 26 -35 64 -74 85 -87 21 -14 42 -31 46 -40 8 -13
26 -15 99 -13 l89 3 -50 32 c-27 18 -61 40 -74 50 -13 10 -33 25 -46 33 -84
58 -131 100 -166 152 -21 33 -39 63 -39 67 0 4 -12 26 -28 47 -15 21 -40 64
-55 93 -16 30 -53 99 -83 152 -29 53 -54 101 -54 107 0 5 -8 20 -19 33 -10 13
-32 49 -48 80 -16 30 -34 62 -39 70 -11 17 -33 97 -34 123 0 10 -11 31 -25 48
-14 16 -25 40 -25 53 0 15 -9 29 -22 36 -21 12 -19 13 36 26 70 16 144 53 209
106 30 24 47 33 47 24 0 -30 24 -37 55 -16 86 56 293 123 335 107 18 -7 27 -5
36 6 6 9 18 16 27 16 20 0 29 14 22 32 -6 15 -78 47 -154 68 l-44 12 28 14
c15 8 35 14 45 14 25 0 42 24 38 54 -3 29 36 76 64 76 10 0 21 7 23 15 16 51
17 51 25 29 15 -37 28 -36 54 4 13 21 55 67 92 100 59 53 65 62 45 62 -23 0
-23 1 -8 18 10 10 17 23 17 28 0 5 12 20 25 33 14 13 25 29 25 37 0 19 19 18
26 -1 4 -9 -7 -30 -25 -50 -38 -43 -39 -54 -6 -47 31 5 31 4 0 -60 -14 -28
-25 -59 -25 -67 0 -9 -7 -29 -15 -45 -17 -33 -19 -62 -5 -71 6 -3 10 -18 10
-32 0 -21 -2 -24 -15 -13 -18 15 -19 7 -3 -20 11 -17 8 -23 -22 -49 -32 -27
-34 -30 -22 -56 10 -23 11 -38 1 -76 -10 -38 -10 -51 0 -63 7 -8 9 -20 5 -27
-4 -6 -3 -10 2 -7 5 2 27 12 49 22 22 10 50 27 64 37 13 10 32 19 41 19 23 0
46 28 42 52 -3 15 4 18 41 18 41 0 50 5 104 59 33 32 69 62 81 65 20 7 70 83
62 96 -1 2 5 8 14 12 9 4 24 12 34 16 9 5 21 27 26 50 7 28 15 42 26 42 19 0
122 105 168 172 34 49 37 58 24 58 -13 0 -92 -75 -92 -87 0 -14 -35 -44 -43
-36 -14 14 -6 34 18 43 14 5 25 17 25 27 0 9 12 29 26 44 16 17 28 43 31 70 6
49 18 69 40 69 11 0 14 -7 10 -21 -3 -11 2 -33 11 -49 16 -25 19 -27 37 -14
26 19 35 18 35 -6 0 -24 13 -26 30 -4 18 20 84 15 88 -7 2 -12 -8 -18 -40 -22
-23 -3 -48 -13 -54 -22 -6 -8 -18 -13 -26 -10 -8 3 -21 -1 -28 -9 -15 -19 -7
-57 22 -104 18 -29 22 -31 37 -19 9 8 40 17 69 21 l54 7 -16 -22 c-9 -13 -13
-32 -10 -46 5 -18 2 -23 -14 -23 -12 0 -25 7 -30 16 -12 22 -32 9 -32 -20 0
-20 -8 -24 -67 -35 -38 -8 -73 -17 -79 -22 -6 -5 -37 -11 -70 -15 -50 -5 -64
-11 -92 -41 -31 -34 -32 -36 -16 -54 21 -23 32 -24 55 -4 20 19 134 37 249 39
47 1 94 5 106 9 15 5 29 2 45 -12 20 -16 21 -21 10 -35 -16 -19 -8 -46 14 -46
13 0 15 47 15 395 -1 340 -3 395 -15 395 -8 0 -15 5 -15 10 0 6 7 10 15 10 12
0 15 14 15 70 l0 70 -52 -1 c-43 0 -49 -2 -30 -10 28 -11 20 -29 -12 -29 -30
0 -39 10 -24 27 10 13 -8 14 -127 11 -99 -2 -140 -7 -143 -15 -5 -18 -22 -16
-22 2 0 9 -9 15 -25 15 -20 0 -25 -5 -25 -24 0 -15 7 -26 20 -29 26 -7 25 -20
-3 -52 -22 -26 -23 -26 -39 -8 -10 11 -19 29 -21 41 -2 12 -8 27 -14 33 -6 6
-9 18 -6 25 4 12 -43 14 -288 14 l-294 0 -22 -32 c-26 -37 -22 -48 18 -48 16
0 29 -4 29 -10 0 -5 -11 -10 -24 -10 -32 0 -42 -17 -16 -25 11 -3 20 -11 20
-17 0 -6 12 -8 30 -5 l30 6 -7 -47 c-3 -26 -13 -52 -20 -57 -8 -6 -14 -15 -13
-20 5 -24 -2 -32 -24 -28 -16 3 -36 -4 -58 -19 -27 -20 -42 -24 -80 -20 -46 4
-48 3 -48 -21 0 -16 -10 -33 -27 -46 -28 -21 -28 -21 -5 -27 12 -3 22 -12 22
-20 0 -23 19 -26 50 -7 22 13 30 25 30 45 0 28 22 39 35 18 9 -15 25 -12 25 4
0 23 29 41 43 27 9 -10 5 -18 -20 -39 -26 -22 -32 -32 -26 -52 3 -14 10 -30
14 -36 10 -13 1 -24 -19 -24 -9 0 -13 7 -9 20 7 27 -21 50 -34 28 -5 -9 -23
-19 -40 -23 -27 -6 -28 -8 -14 -19 16 -12 16 -14 0 -30 -17 -16 -18 -16 -32 4
-8 11 -21 20 -29 20 -19 0 -18 19 1 26 19 8 20 44 1 44 -8 0 -18 -4 -21 -10
-3 -5 -15 -10 -26 -10 -18 0 -18 2 -4 24 8 13 13 30 10 38 -3 8 1 21 10 28 20
16 19 49 -1 57 -13 5 -11 10 13 29 15 13 34 23 41 24 7 0 34 12 58 26 46 27
80 75 70 100 -8 20 -37 17 -43 -4 -5 -20 -70 -55 -78 -42 -3 4 1 10 8 13 21 8
43 85 29 99 -7 7 -12 20 -12 30 0 14 6 16 28 12 19 -4 32 -1 41 10 12 14 4 16
-77 16 -85 0 -90 -1 -96 -22 -9 -35 -8 -36 29 -48 29 -9 35 -17 35 -39 0 -32
-16 -51 -43 -51 -15 0 -17 5 -12 30 5 22 3 32 -8 36 -8 3 -18 17 -21 30 -6 22
-11 25 -36 19 -41 -9 -39 11 3 29 31 14 29 14 -58 15 -49 0 -97 2 -105 2 -37
5 -53 -1 -41 -14 12 -15 5 -27 -17 -27 -9 0 -13 7 -9 20 5 19 0 20 -173 20
-185 0 -205 -5 -174 -41 12 -14 11 -18 -7 -34 -25 -24 -37 -10 -33 41 l3 35
-82 -3 -82 -3 3 -32 c3 -29 0 -33 -20 -33 -26 -1 -75 -37 -80 -60 -2 -10 5
-15 22 -15 38 0 38 -30 -1 -44 -38 -13 -49 -14 -30 -2 19 12 7 39 -20 43 -46
6 -32 30 68 118 9 8 24 18 32 21 28 11 -29 14 -145 9z m843 -35 c-4 -8 -11
-15 -17 -15 -14 0 -13 27 3 33 16 6 21 1 14 -18z m673 6 c0 -18 -18 -21 -30
-6 -10 13 -9 15 9 15 11 0 21 -4 21 -9z m-1290 -11 c0 -5 -7 -10 -16 -10 -8 0
-12 5 -9 10 3 6 10 10 16 10 5 0 9 -4 9 -10z m1580 -25 c0 -16 -6 -25 -15 -25
-8 0 -15 -2 -15 -4 0 -2 -3 -11 -6 -20 -5 -13 3 -16 47 -17 30 0 47 -3 39 -6
-8 -3 -26 -17 -39 -30 -32 -28 -71 -31 -71 -4 0 10 -9 21 -21 24 -17 5 -19 9
-10 26 19 35 14 52 -14 45 -15 -4 -25 -2 -25 5 0 10 9 12 72 15 15 1 30 5 34
9 14 14 24 7 24 -18z m-1900 5 c0 -5 -4 -10 -10 -10 -5 0 -10 5 -10 10 0 6 5
10 10 10 6 0 10 -4 10 -10z m710 -22 c0 -16 -41 -58 -57 -58 -23 0 -14 38 14
58 28 20 43 20 43 0z m1430 18 c0 -11 -19 -15 -25 -6 -3 5 1 10 9 10 9 0 16
-2 16 -4z m310 -11 c-12 -15 -30 -12 -30 6 0 5 10 9 21 9 18 0 19 -2 9 -15z
m-1865 -23 c-8 -26 -80 -92 -100 -92 -8 0 -17 11 -21 25 -3 14 -12 25 -20 25
-8 0 -14 4 -14 9 0 17 20 23 35 11 14 -11 16 -10 98 37 26 15 31 11 22 -15z
m301 17 c3 -6 -9 -26 -27 -45 -36 -37 -66 -46 -54 -16 4 9 10 27 12 39 6 28
55 44 69 22z m138 -32 c-3 -9 -12 -17 -20 -17 -17 0 -17 5 -3 32 13 24 33 10
23 -15z m610 -5 c-12 -18 -84 -30 -84 -14 0 6 17 19 38 30 41 22 64 14 46 -16z
m-1274 20 c0 -5 -13 -18 -30 -30 -20 -15 -30 -18 -30 -10 0 8 12 21 28 30 32
20 32 20 32 10z m400 -22 c-12 -23 -30 -27 -30 -7 0 17 10 27 27 27 11 0 11
-5 3 -20z m1386 -10 c-4 -23 -1 -35 13 -47 15 -12 17 -22 11 -38 -7 -18 -4
-24 16 -34 20 -9 23 -16 18 -38 -4 -16 -12 -34 -20 -42 -10 -12 -15 -8 -30 25
-10 21 -18 48 -20 59 -1 11 -7 38 -13 60 -8 32 -7 45 5 63 20 31 28 28 20 -8z
m203 16 c6 -7 9 -20 5 -29 -3 -8 -1 -18 5 -22 17 -10 13 -25 -7 -25 -11 0 -23
13 -31 35 -17 47 1 74 28 41z m81 -12 c0 -8 -9 -14 -20 -14 -22 0 -26 10 -8
28 13 13 28 7 28 -14z m-730 -15 c0 -10 -7 -19 -15 -19 -15 0 -21 31 -9 43 11
10 24 -3 24 -24z m341 -48 c-5 -9 -9 -26 -8 -36 1 -14 -5 -21 -20 -23 -21 -3
-23 1 -23 42 0 34 4 45 18 48 25 6 43 -11 33 -31z m-1733 7 c-2 -15 -11 -24
-25 -26 -13 -2 -23 -9 -23 -15 0 -21 -17 -40 -29 -33 -8 5 -1 22 21 52 34 48
61 58 56 22z m412 7 c0 -8 -10 -20 -22 -26 -12 -7 -30 -21 -39 -33 -23 -29
-35 -14 -19 25 17 40 80 68 80 34z m70 5 c0 -5 -5 -10 -11 -10 -5 0 -7 5 -4
10 3 6 8 10 11 10 2 0 4 -4 4 -10z m-386 -20 c35 -13 36 -43 1 -34 -14 3 -32
1 -40 -6 -27 -22 -48 13 -23 38 15 15 29 15 62 2z m1856 -16 c0 -8 -4 -12 -10
-9 -5 3 -10 13 -10 21 0 8 5 12 10 9 6 -3 10 -13 10 -21z m-1170 -4 c0 -11 5
-20 12 -20 6 0 9 -2 6 -5 -3 -3 -17 0 -32 6 -20 9 -23 15 -15 26 16 19 29 16
29 -7z m550 -11 c15 -27 7 -34 -35 -31 -23 2 -35 -2 -35 -10 0 -7 -4 -19 -9
-27 -8 -12 -12 -12 -25 -2 -33 28 -8 74 44 84 45 8 49 7 60 -14z m-776 -5 c23
-23 4 -54 -33 -54 -18 0 -31 -6 -35 -17 -5 -13 -9 -14 -19 -4 -9 10 -8 15 6
25 9 7 17 21 17 30 0 13 13 23 47 35 1 1 9 -6 17 -15z m1559 -16 c3 -13 3 -43
0 -68 -2 -25 -4 -56 -3 -70 0 -23 -1 -23 -17 -7 -12 12 -18 36 -19 84 -1 37 0
71 2 75 10 16 32 7 37 -14z m-509 5 c4 -5 11 -8 14 -8 23 -2 55 -20 83 -46 31
-29 31 -30 14 -49 -23 -25 -35 -25 -35 0 0 23 -4 24 -31 10 -22 -12 -49 -3
-29 10 6 4 10 20 8 36 l-3 29 -20 -22 c-11 -13 -25 -23 -31 -23 -12 0 -26 49
-17 62 6 10 37 10 47 1z m-1746 -36 c2 -12 -3 -17 -17 -17 -23 0 -24 1 -15 25
8 19 28 15 32 -8z m-60 -8 c-2 -6 -8 -10 -13 -10 -5 0 -11 4 -13 10 -2 6 4 11
13 11 9 0 15 -5 13 -11z m272 5 c0 -15 -22 -44 -35 -44 -8 0 -19 -8 -24 -17
-9 -15 -12 -16 -20 -4 -7 11 -2 22 17 42 24 24 62 38 62 23z m380 -25 c0 -5
-3 -9 -7 -9 -5 0 -19 -9 -33 -20 l-25 -19 27 -10 c23 -9 26 -15 25 -53 -2 -39
-4 -43 -27 -43 -17 0 -26 6 -28 20 -6 31 -18 38 -43 23 -13 -7 -26 -16 -29
-19 -3 -3 -22 -17 -43 -31 -46 -31 -75 -77 -55 -89 10 -7 10 -11 0 -21 -11
-11 -15 -10 -25 3 -14 18 -67 34 -67 20 0 -5 5 -13 10 -16 24 -15 6 -25 -40
-23 -27 2 -50 5 -50 8 0 14 52 80 63 80 7 0 18 9 25 20 7 11 21 20 32 20 33 0
70 22 70 43 0 19 37 66 53 67 14 0 7 -38 -8 -44 -18 -7 -20 -46 -2 -46 14 0
51 38 60 63 3 9 13 17 22 17 9 0 22 15 30 33 7 17 16 35 20 38 8 9 45 -1 45
-12z m736 10 c3 -6 1 -16 -5 -22 -16 -16 -14 -27 4 -21 8 4 15 1 15 -5 0 -6
-6 -11 -14 -11 -8 0 -17 -11 -20 -25 -4 -16 -13 -25 -26 -25 -10 0 -22 -4 -25
-10 -3 -5 3 -10 14 -10 12 0 21 -5 21 -11 0 -8 -14 -9 -42 -5 -23 4 -44 9 -46
11 -2 2 8 21 22 42 14 20 26 48 26 61 0 31 60 56 76 31z m311 -4 c3 -9 -2 -24
-12 -35 -9 -10 -14 -24 -10 -29 3 -7 -2 -11 -15 -11 -21 0 -21 7 -3 73 5 21
32 22 40 2z m-142 -15 c0 -22 -29 -18 -33 3 -3 14 1 18 15 15 10 -2 18 -10 18
-18z m650 -21 c5 -23 3 -34 -11 -44 -26 -18 -34 -10 -28 28 12 67 27 73 39 16z
m-1675 22 c0 -5 -7 -11 -15 -15 -9 -3 -15 0 -15 9 0 8 7 15 15 15 8 0 15 -4
15 -9z m428 -34 c2 -12 -3 -17 -17 -17 -15 0 -21 6 -21 21 0 25 33 22 38 -4z
m-238 -6 c0 -6 -4 -13 -10 -16 -5 -3 -10 1 -10 9 0 9 5 16 10 16 6 0 10 -4 10
-9z m70 -11 c0 -11 -7 -20 -15 -20 -17 0 -18 2 -9 24 9 23 24 20 24 -4z m-698
-5 c0 -5 -5 -11 -11 -13 -6 -2 -11 4 -11 13 0 9 5 15 11 13 6 -2 11 -8 11 -13z
m131 -23 c13 -12 20 -13 29 -4 14 14 48 16 48 4 0 -14 -23 -32 -40 -32 -9 0
-26 -9 -38 -20 l-22 -21 0 29 c0 16 -9 37 -20 47 -19 17 -21 17 -40 0 -11 -10
-20 -13 -20 -7 0 33 68 36 103 4z m2022 -9 c-7 -17 -8 -17 -15 2 -9 24 -2 41
12 27 6 -6 7 -19 3 -29z m-1555 23 c0 -3 -4 -8 -10 -11 -5 -3 -10 -1 -10 4 0
6 5 11 10 11 6 0 10 -2 10 -4z m247 -23 c2 -6 -5 -14 -15 -17 -11 -4 -22 -16
-25 -28 -5 -18 -8 -19 -21 -8 -22 17 -20 30 5 30 16 0 19 4 14 21 -6 17 -3 20
16 17 12 -2 24 -8 26 -15z m1003 -12 c0 -5 -7 -11 -14 -14 -8 -3 -18 -22 -22
-42 -4 -22 -16 -42 -30 -52 -16 -10 -24 -25 -24 -44 0 -22 -5 -29 -20 -29 -11
0 -17 5 -15 13 3 6 8 39 13 71 7 57 9 60 40 68 18 5 35 15 39 23 6 16 33 21
33 6z m-1122 -21 c-14 -22 -17 -23 -37 -11 -11 7 -10 11 5 20 32 18 46 14 32
-9z m-658 -4 c0 -8 3 -21 6 -30 4 -12 0 -16 -15 -16 -24 0 -36 21 -27 45 7 19
36 20 36 1z m1238 -4 c3 -9 -2 -13 -14 -10 -9 1 -19 9 -22 16 -3 9 2 13 14 10
9 -1 19 -9 22 -16z m-643 -12 c0 -7 -10 -19 -22 -27 -21 -14 -23 -14 -30 2 -4
12 0 23 12 32 22 15 40 12 40 -7z m845 -5 c0 -8 -2 -15 -4 -15 -2 0 -12 -3
-21 -7 -15 -5 -16 -3 -6 15 13 25 31 29 31 7z m101 -15 c21 -12 26 -40 6 -40
-7 0 -18 5 -25 12 -12 12 -17 38 -6 38 3 0 14 -5 25 -10z m-1141 -29 c0 -11
-59 -26 -67 -17 -6 6 33 24 55 25 6 1 12 -3 12 -8z m728 -8 c-4 -22 -22 -20
-26 1 -2 10 3 16 13 16 10 0 15 -7 13 -17z m-278 -13 c0 -12 -28 -25 -36 -17
-9 9 6 27 22 27 8 0 14 -5 14 -10z m-146 -16 c9 -22 -1 -34 -28 -34 -13 0 -29
-7 -36 -15 -19 -23 -32 -18 -28 13 2 21 9 28 31 30 15 2 27 8 27 13 0 15 27
10 34 -7z m-1034 -3 c0 -17 -18 -21 -24 -6 -3 9 0 15 9 15 8 0 15 -4 15 -9z
m647 3 c-3 -3 -12 -4 -19 -1 -8 3 -5 6 6 6 11 1 17 -2 13 -5z m481 -26 c-7
-19 -38 -22 -38 -4 0 10 9 16 21 16 12 0 19 -5 17 -12z m1248 0 c9 -15 -27
-41 -40 -28 -6 6 -5 15 4 25 15 18 26 19 36 3z m-1586 -18 c0 -5 -4 -10 -10
-10 -5 0 -10 5 -10 10 0 6 5 10 10 10 6 0 10 -4 10 -10z m454 4 c9 -3 16 -12
16 -20 0 -21 -33 -17 -48 6 -10 16 -10 20 2 20 8 0 21 -3 30 -6z m589 -8 c7
-18 -12 -36 -39 -36 -26 0 -38 14 -30 35 7 19 62 20 69 1z m-939 -6 c22 -8 26
-16 26 -50 0 -29 4 -40 15 -40 21 0 31 -30 14 -41 -8 -5 -26 -9 -40 -9 -31 0
-99 -58 -99 -83 0 -9 5 -17 10 -17 6 0 10 8 10 18 0 11 13 21 41 30 23 7 44
11 46 8 9 -8 -18 -46 -33 -46 -8 0 -28 -7 -43 -15 -26 -13 -30 -13 -41 0 -19
23 -53 17 -73 -11 -24 -32 -15 -41 25 -26 17 6 35 9 39 6 18 -11 -12 -43 -46
-50 -22 -4 -52 -24 -84 -54 -43 -41 -57 -49 -95 -52 -25 -1 -47 1 -48 7 -2 5
4 10 12 10 8 0 35 14 60 31 25 17 60 37 78 45 43 19 44 49 1 49 -26 0 -30 3
-27 22 2 16 15 27 46 38 27 10 51 28 63 47 12 19 31 33 49 37 16 3 46 21 67
39 l37 34 -22 19 c-12 10 -22 29 -22 41 0 26 0 26 34 13z m176 -14 c0 -3 -4
-8 -10 -11 -5 -3 -10 -1 -10 4 0 6 5 11 10 11 6 0 10 -2 10 -4z m260 -22 c0
-16 -16 -19 -25 -4 -8 13 4 32 16 25 5 -4 9 -13 9 -21z m-690 -16 c-1 -46 -41
-73 -68 -46 -18 18 -15 24 21 47 41 26 47 26 47 -1z m380 -2 c0 -7 -11 -16
-25 -18 -19 -4 -25 -1 -25 13 0 14 7 19 25 19 15 0 25 -6 25 -14z m-238 -21
c4 -19 1 -25 -13 -25 -22 0 -33 16 -25 35 9 24 33 17 38 -10z m428 15 c0 -5
-5 -10 -10 -10 -16 0 12 -39 32 -46 26 -8 22 -24 -6 -24 -54 0 -65 15 -46 64
9 25 30 36 30 16z m-725 -40 c3 -5 2 -10 -3 -10 -5 0 -12 -9 -15 -20 -4 -16
-14 -20 -45 -20 -31 0 -41 -4 -45 -20 -6 -24 -39 -27 -35 -3 2 11 -6 19 -21
23 l-24 6 26 17 c33 21 47 21 62 1 10 -15 14 -14 41 10 31 27 49 32 59 16z
m45 -6 c0 -8 -4 -12 -10 -9 -5 3 -10 10 -10 16 0 5 5 9 10 9 6 0 10 -7 10 -16z
m535 6 c-3 -5 -10 -10 -16 -10 -5 0 -9 5 -9 10 0 6 7 10 16 10 8 0 12 -4 9
-10z m525 -10 c0 -11 -7 -20 -15 -20 -8 0 -15 9 -15 20 0 11 7 20 15 20 8 0
15 -9 15 -20z m111 -1 c9 -17 8 -23 -2 -30 -26 -16 -39 -9 -39 21 0 36 24 41
41 9z m339 11 c0 -5 -5 -10 -11 -10 -5 0 -7 5 -4 10 3 6 8 10 11 10 2 0 4 -4
4 -10z m-1330 -61 c0 -5 -11 -14 -24 -18 -13 -5 -26 -17 -29 -25 -7 -18 -37
-22 -37 -4 0 21 53 65 72 60 10 -2 18 -8 18 -13z m465 1 c3 -5 1 -10 -4 -10
-6 0 -11 5 -11 10 0 6 2 10 4 10 3 0 8 -4 11 -10z m694 1 c8 -5 9 -11 3 -15
-14 -8 -43 4 -36 15 7 11 15 11 33 0z m624 -6 c-4 -15 -36 -12 -41 3 -3 9 3
13 19 10 13 -1 23 -7 22 -13z m-918 -15 c3 -5 1 -10 -4 -10 -6 0 -11 5 -11 10
0 6 2 10 4 10 3 0 8 -4 11 -10z m-455 -21 c0 -5 -9 -9 -20 -9 -19 0 -26 11
-14 23 8 8 34 -3 34 -14z m592 -4 c0 -5 -5 -11 -11 -13 -6 -2 -11 4 -11 13 0
9 5 15 11 13 6 -2 11 -8 11 -13z m-1262 -28 c0 -19 -36 -46 -50 -37 -16 10 -4
48 18 53 21 4 32 -1 32 -16z m-164 -9 c-9 -12 -16 -31 -16 -42 0 -18 -11 -18
-12 1 0 4 -7 17 -14 28 -21 29 -17 35 22 35 34 0 35 -1 20 -22z m49 -39 c-10
-15 -25 -10 -19 6 4 8 10 12 15 9 5 -3 7 -10 4 -15z m1335 1 c0 -11 -7 -20
-15 -20 -15 0 -21 21 -8 33 12 13 23 7 23 -13z m-1080 -66 c-15 -17 -40 -19
-40 -2 0 6 10 23 23 36 22 24 22 24 25 2 2 -11 -2 -28 -8 -36z m1148 29 c-3
-32 -35 -44 -45 -17 -4 11 1 22 12 30 28 21 37 17 33 -13z m-1518 -12 c0 -3
-4 -12 -9 -20 -8 -12 -12 -12 -25 -2 -12 10 -13 18 -5 33 8 15 13 17 25 7 8
-6 14 -14 14 -18z m-115 9 c-3 -5 -10 -10 -16 -10 -5 0 -9 5 -9 10 0 6 7 10
16 10 8 0 12 -4 9 -10z m913 -2 c-6 -18 -28 -21 -28 -4 0 9 7 16 16 16 9 0 14
-5 12 -12z m-128 -8 c0 -5 -7 -10 -16 -10 -8 0 -12 5 -9 10 3 6 10 10 16 10 5
0 9 -4 9 -10z m70 -37 c0 -4 -30 -36 -66 -70 -66 -62 -114 -82 -114 -48 0 16
81 75 102 75 8 0 24 11 36 25 21 24 42 33 42 18z m-720 -65 c0 -10 4 -17 9
-13 14 8 25 -15 12 -28 -7 -7 -16 -6 -29 6 -28 25 -42 21 -42 -13 0 -16 -4
-30 -9 -30 -22 0 -20 107 2 122 16 10 57 -22 57 -44z m230 17 c0 -21 -5 -25
-30 -25 -33 0 -35 3 -20 31 16 29 50 25 50 -6z m-110 -45 c0 -5 -4 -10 -10
-10 -5 0 -10 5 -10 10 0 6 5 10 10 10 6 0 10 -4 10 -10z m130 -11 c0 -12 -49
-59 -61 -59 -17 0 -9 19 16 38 14 11 25 25 25 32 0 6 5 8 10 5 6 -3 10 -11 10
-16z m-152 -27 c12 -8 22 -21 22 -28 0 -19 -27 -18 -38 2 -7 13 -13 13 -36 3
-22 -11 -29 -10 -42 3 -15 14 -14 17 12 30 31 15 45 13 82 -10z m-270 -23 c-2
-6 -8 -10 -13 -10 -5 0 -11 4 -13 10 -2 6 4 11 13 11 9 0 15 -5 13 -11z m482
1 c0 -5 -5 -10 -11 -10 -5 0 -7 5 -4 10 3 6 8 10 11 10 2 0 4 -4 4 -10z m-550
-26 c0 -16 -16 -19 -25 -4 -8 13 4 32 16 25 5 -4 9 -13 9 -21z m128 -12 c2 -7
-5 -15 -15 -18 -10 -4 -26 -16 -35 -28 -15 -18 -19 -19 -28 -6 -15 23 -12 29
14 36 14 3 27 13 30 21 7 16 28 13 34 -5z m232 -9 c-1 -25 -24 -53 -44 -53
-22 0 -20 15 7 44 27 29 37 32 37 9z m-145 -13 c3 -6 -1 -7 -9 -4 -18 7 -21
14 -7 14 6 0 13 -4 16 -10z m365 -34 c0 -3 -4 -8 -10 -11 -5 -3 -10 -1 -10 4
0 6 5 11 10 11 6 0 10 -2 10 -4z m-162 -34 c10 -7 8 -13 -7 -26 -21 -19 -35
-8 -25 18 7 18 13 19 32 8z m-404 -86 c-3 -8 -12 -12 -19 -10 -7 3 -16 1 -19
-5 -10 -15 -36 -2 -36 18 0 9 5 22 11 28 16 16 71 -11 63 -31z m254 32 c-6
-18 -28 -21 -28 -4 0 9 7 16 16 16 9 0 14 -5 12 -12z m180 -20 c-6 -18 -28
-21 -28 -4 0 9 7 16 16 16 9 0 14 -5 12 -12z m-319 -52 c9 -11 8 -15 -5 -20
-17 -6 -44 9 -44 25 0 14 36 10 49 -5z m189 -28 c-2 -12 -17 -30 -35 -41 -27
-15 -35 -16 -52 -5 -38 24 -28 36 49 58 40 12 42 11 38 -12z m87 -169 c36 -11
65 -25 65 -30 0 -4 13 -23 29 -41 15 -18 36 -49 46 -68 10 -19 30 -51 46 -70
32 -41 46 -80 29 -80 -7 0 -33 17 -59 38 -67 56 -110 80 -166 92 -40 9 -51 8
-63 -4 -22 -22 1 -46 43 -46 18 0 43 -8 55 -18 l23 -18 -30 -35 c-63 -71 -88
-144 -59 -168 20 -17 46 12 46 52 0 35 36 104 62 121 14 8 24 3 51 -25 19 -20
37 -45 41 -56 3 -11 18 -25 31 -31 14 -6 25 -16 25 -22 0 -5 18 -13 39 -16 30
-5 41 -12 45 -29 3 -13 22 -44 42 -70 39 -52 57 -92 50 -111 -3 -7 -27 -23
-53 -36 -38 -18 -65 -23 -128 -23 -72 0 -88 4 -150 35 -80 40 -221 173 -255
240 -41 80 -36 242 12 353 15 34 31 53 57 67 46 24 49 24 126 -1z"/>
<path d="M1400 2505 c0 -8 4 -15 9 -15 5 0 11 7 15 15 3 9 0 15 -9 15 -8 0
-15 -7 -15 -15z"/>
<path d="M1465 2359 c-10 -15 1 -23 20 -15 9 3 13 10 10 16 -8 13 -22 13 -30
-1z"/>
<path d="M120 2190 c-11 -7 -12 -12 -3 -21 13 -13 33 -4 33 17 0 16 -9 18 -30
4z"/>
<path d="M1 1784 c0 -11 3 -14 6 -6 3 7 2 16 -1 19 -3 4 -6 -2 -5 -13z"/>
<path d="M17 1751 c-6 -24 0 -31 25 -31 21 0 22 4 8 31 -14 24 -26 24 -33 0z"/>
<path d="M2335 1528 c-144 -25 -206 -54 -303 -144 l-47 -44 28 -25 c36 -32 58
-32 96 1 45 37 61 27 61 -41 0 -82 51 -151 135 -182 38 -15 167 -27 193 -19
11 4 25 20 32 36 7 17 16 30 21 30 19 0 39 110 41 225 l3 120 -45 22 c-55 27
-134 35 -215 21z m75 -198 c11 -11 20 -29 20 -40 0 -24 -34 -60 -56 -60 -32 0
-54 20 -54 51 0 66 47 92 90 49z"/>
<path d="M1053 1245 c-89 -17 -150 -49 -229 -120 l-59 -55 30 -25 c37 -31 46
-31 83 0 32 27 61 33 63 13 1 -7 3 -20 4 -28 1 -8 3 -31 4 -51 1 -43 55 -111
110 -138 39 -20 188 -37 208 -23 46 30 98 160 87 220 -6 29 -4 32 19 32 35 0
57 10 57 26 0 7 -17 38 -37 68 -64 93 -154 115 -340 81z m127 -185 c11 -11 20
-27 20 -35 0 -23 -37 -55 -63 -55 -43 0 -57 32 -37 84 12 32 51 35 80 6z"/>
<path d="M2490 911 c0 -26 17 -71 28 -71 4 0 8 19 8 42 -1 32 -5 44 -18 46
-12 2 -18 -3 -18 -17z"/>
<path d="M1850 861 c0 -25 30 -43 51 -31 19 13 0 44 -30 48 -16 3 -21 -2 -21
-17z"/>
<path d="M1162 588 c2 -15 11 -24 26 -26 28 -4 30 23 3 38 -28 15 -33 13 -29
-12z"/>
<path d="M1281 596 c-14 -17 -7 -36 14 -36 21 0 26 15 12 34 -12 16 -14 16
-26 2z"/>
<path d="M1000 567 c0 -31 27 -67 51 -67 16 0 19 4 14 23 -18 60 -65 92 -65
44z"/>
<path d="M2166 391 c-75 -78 -316 -145 -440 -122 -75 14 -76 14 -76 -4 0 -27
35 -34 156 -29 144 6 293 46 349 93 11 10 32 25 48 34 31 20 37 57 9 57 -10 0
-31 -13 -46 -29z"/>
</g>
</svg>
